<?xml version="1.0" encoding="utf-8"?>
<!-- Generator: Adobe Illustrator 21.1.0, SVG Export Plug-In . SVG Version: 6.00 Build 0)  -->
<svg version="1.1" id="레이어_1" xmlns="http://www.w3.org/2000/svg" xmlns:xlink="http://www.w3.org/1999/xlink" x="0px"
	 y="0px" viewBox="0 0 100 100" style="enable-background:new 0 0 100 100;" xml:space="preserve">
<style type="text/css">
	.st0{fill:#A8A7A7;stroke:#A8A7A7;stroke-miterlimit:10;}
</style>
<path class="st0" d="M24.9,6l45.9,45.9c1,1,2.5,1,3.5,0v0c1-1,1-2.5,0-3.5L28.4,2.5c-1-1-2.5-1-3.5,0l0,0C23.9,3.4,23.9,5,24.9,6z"
	/>
<path class="st0" d="M28.4,98.1l45.9-45.9c1-1,1-2.5,0-3.5v0c-1-1-2.5-1-3.5,0L24.9,94.6c-1,1-1,2.5,0,3.5h0
	C25.8,99.1,27.4,99.1,28.4,98.1z"/>
</svg>
