<?xml version="1.0" encoding="utf-8"?>
<!-- Generator: Adobe Illustrator 21.1.0, SVG Export Plug-In . SVG Version: 6.00 Build 0)  -->
<svg version="1.1" id="레이어_1" xmlns="http://www.w3.org/2000/svg" xmlns:xlink="http://www.w3.org/1999/xlink" x="0px"
	 y="0px" viewBox="0 0 50 50" style="enable-background:new 0 0 50 50;" xml:space="preserve">
<style type="text/css">
	.st0{fill:#FFFFFF;}
</style>
<g>
	<g>
		<circle class="st0" cx="25.4" cy="13.7" r="10.7"/>
		<g>
			<path class="st0" d="M37.7,13.7C37.3,7.1,32.4,1.5,25.4,1.5c-6.6,0-12.3,5.6-12.2,12.2c0,6.4,5.2,11.9,11.7,12.2
				C32,26.3,37.3,20.6,37.7,13.7c0.1-1.9-2.9-1.9-3,0c-0.6,11.8-18.5,11.9-18.5,0c0-11.9,17.8-11.8,18.5,0
				C34.8,15.7,37.8,15.7,37.7,13.7z"/>
		</g>
	</g>
	<g>
		<path class="st0" d="M25.4,24.1C16.4,24.1,9,31.5,9,40.5c0,0.5,0,1,0.1,1.4c4.6,3.4,10.2,5.5,16.4,5.5c6.2,0,11.8-2.1,16.4-5.5
			c0-0.5,0.1-1,0.1-1.4C41.9,31.5,34.5,24.1,25.4,24.1z"/>
		<g>
			<path class="st0" d="M25.4,22.6C17.3,22.9,10.1,28.1,8,36.2c-1.1,4.4-1,6.5,2.9,8.8c4.4,2.6,9.4,4,14.5,4c5.1,0,10.2-1.4,14.5-4
				c3.9-2.3,4-4.4,2.9-8.8C40.8,28.1,33.6,22.9,25.4,22.6c-1.9-0.1-1.9,2.9,0,3c6.6,0.3,12.4,4.3,14.3,10.8c1.1,3.8,0.7,5.1-2.7,6.8
				C33.5,45,29.5,46,25.4,46c-3.6,0-7.1-0.8-10.4-2.2c-3.5-1.6-5.2-2.7-4.1-6.8c1.7-6.8,7.6-11.1,14.5-11.4
				C27.4,25.5,27.4,22.5,25.4,22.6z"/>
		</g>
	</g>
</g>
<g>
</g>
<g>
</g>
<g>
</g>
<g>
</g>
<g>
</g>
<g>
</g>
<g>
</g>
<g>
</g>
<g>
</g>
<g>
</g>
<g>
</g>
</svg>
