<?xml version="1.0" encoding="utf-8"?>
<!-- Generator: Adobe Illustrator 21.1.0, SVG Export Plug-In . SVG Version: 6.00 Build 0)  -->
<svg version="1.1" id="레이어_1" xmlns="http://www.w3.org/2000/svg" xmlns:xlink="http://www.w3.org/1999/xlink" x="0px"
	 y="0px" viewBox="0 0 100 100" style="enable-background:new 0 0 100 100;" xml:space="preserve">
<style type="text/css">
	.st0{fill:#A8A7A7;stroke:#A8A7A7;stroke-miterlimit:10;}
</style>
<path class="st0" d="M28.4,51.9L74.3,6c1-1,1-2.5,0-3.5v0c-1-1-2.5-1-3.5,0L24.9,48.4c-1,1-1,2.5,0,3.5l0,0
	C25.8,52.8,27.4,52.8,28.4,51.9z"/>
<path class="st0" d="M74.3,94.6L28.4,48.7c-1-1-2.5-1-3.5,0l0,0c-1,1-1,2.5,0,3.5l45.9,45.9c1,1,2.5,1,3.5,0l0,0
	C75.2,97.2,75.2,95.6,74.3,94.6z"/>
</svg>
