<?xml version="1.0" encoding="utf-8"?>
<!-- Generator: Adobe Illustrator 21.1.0, SVG Export Plug-In . SVG Version: 6.00 Build 0)  -->
<svg version="1.0" id="레이어_1" xmlns="http://www.w3.org/2000/svg" xmlns:xlink="http://www.w3.org/1999/xlink" x="0px"
	 y="0px" viewBox="0 0 4000 1296" style="enable-background:new 0 0 4000 1296;" xml:space="preserve">
<style type="text/css">
	.st0{fill:#FFFFFF;}
	.st1{fill:none;stroke:#FFFFFF;stroke-width:91;stroke-miterlimit:10;}
	.st2{fill:#FFFFFF;stroke:#FFFFFF;stroke-width:0.25;stroke-miterlimit:10;}
</style>
<g>
	<path class="st0" d="M576.4,678c0-12.6,4.5-23.2,13.5-31.7c9-8.5,20.6-12.7,34.8-12.7c13.8,0,25.4,4.2,34.7,12.6
		c9.3,8.4,13.9,19,13.9,31.8c0,12.8-4.6,23.5-13.8,32c-9.2,8.5-20.8,12.7-34.8,12.7c-14,0-25.6-4.3-34.7-13
		C580.9,701,576.4,690.4,576.4,678z M582.9,1091.7V780.4h82.3v311.3H582.9z"/>
	<path class="st0" d="M749.3,1091.7V631.2h82.3v460.5H749.3z"/>
	<path class="st0" d="M915.7,1091.7V631.2h82.3v460.5H915.7z"/>
	<path class="st0" d="M1064.4,938c0-50.9,15-91.2,45-120.7c30-29.5,70.7-44.3,122-44.3c49.6,0,88.7,14.5,117.4,43.4
		c28.7,28.9,43.1,67.7,43.1,116.2c0,50.5-14.9,91-44.6,121.3c-29.7,30.3-69.9,45.5-120.7,45.5c-49.8,0-89.2-14.6-118.5-43.7
		C1079,1026.6,1064.4,987.4,1064.4,938z M1147.9,936.8c0,65.4,27.1,98,81.4,98c52.3,0,78.5-33.5,78.5-100.4
		c0-64.8-26.3-97.1-78.8-97.1c-25.7,0-45.6,8.8-59.8,26.5C1155,881.5,1147.9,905.8,1147.9,936.8z"/>
	<path class="st0" d="M1892.5,780.4l-90.6,311.3h-86.5l-51.2-194.3c-2.6-9.5-4.2-21.6-5-36.4h-1.8c-1.2,14.8-3.2,26.8-5.9,35.8
		l-55.1,194.9H1511l-89.7-311.3h84.7l48.9,212.3c2.6,11.5,4.1,22.3,4.7,32.6h1.8c0.6-10.1,2.4-21.3,5.3-33.8l59.2-211.2h78.2
		l52.4,212.6c1.4,5.7,2.9,16.7,4.4,32.9h2.1c0.6-8.5,2.3-19.4,5-32.9l47.1-212.6H1892.5z"/>
</g>
<g>
	<path class="st0" d="M2107,988.4c34.5,28.6,74.1,42.9,118.8,42.9c26.8,0,46.9-4.7,60.1-14.1c13.2-9.4,19.8-21.7,19.8-36.9
		c0-13.2-5.5-25.4-16.6-36.4c-11.1-11.1-37.8-25.7-80.3-43.8c-36.1-16.2-62.3-34.4-78.6-54.6c-16.3-20.2-24.4-44-24.4-71.2
		c0-39.3,15.2-70,45.6-92.3c30.4-22.2,70.3-33.3,119.6-33.3c44.2,0,79.1,5.5,104.5,16.6v80.9c-28.2-19.3-62.3-29-102.2-29
		c-23.5,0-42.5,4.4-57,13.3s-21.8,21.1-21.8,36.7c0,12.4,5,23.8,15.1,34.1c10.1,10.3,33.7,23.6,70.8,40
		c42.6,18.6,72.3,38.1,88.8,58.5c16.6,20.4,24.9,44.9,24.9,73.3c0,41.1-14.7,72.4-44,94c-29.3,21.6-70.4,32.4-123.3,32.4
		c-49.2,0-89.1-8.2-119.9-24.6V988.4z"/>
	<path class="st0" d="M2620,1088.5c-14,7.1-33.6,10.7-58.6,10.7c-63.8,0-95.7-33.8-95.7-101.3V843.2h-51.5v-62.8h51.5v-69.6l82.3-24
		v93.6h72v62.8h-72v140.1c0,34.4,13.5,51.5,40.6,51.5c11.3,0,21.7-3.2,31.4-9.5V1088.5z"/>
	<path class="st0" d="M2961.1,1091.7h-82.3v-48h-1.5c-22.9,37.1-54.7,55.7-95.4,55.7c-72.9,0-109.3-43.8-109.3-131.5V780.4h82.6
		v178.9c0,50.3,19.5,75.5,58.6,75.5c19.1,0,34.7-6.9,46.8-20.6c12-13.7,18.1-32.1,18.1-55.2V780.4h82.3V1091.7z"/>
	<path class="st0" d="M3340.2,1091.7h-82.3v-45.9h-1.5c-22.1,35.7-55.2,53.6-99.2,53.6c-39.1,0-70.4-14-93.9-42.1
		c-23.5-28-35.2-66.1-35.2-114.3c0-51.1,13.1-92.3,39.4-123.3c26.3-31.1,60.4-46.6,102.5-46.6c40.9,0,69.7,15.1,86.5,45.3h1.5V631.2
		h82.3V1091.7z M3259.1,913.7c0-21.9-6.7-40.1-20.1-54.6c-13.4-14.5-30.3-21.8-50.6-21.8c-23.7,0-42.4,9.3-56.1,27.8
		c-13.7,18.6-20.6,43.7-20.6,75.5c0,29.8,6.6,53,19.8,69.4c13.2,16.5,31.1,24.7,53.6,24.7c21.7,0,39.5-8.6,53.3-25.8
		c13.8-17.2,20.7-39.1,20.7-65.7V913.7z"/>
	<path class="st0" d="M3419,678c0-12.6,4.5-23.2,13.5-31.7c9-8.5,20.6-12.7,34.8-12.7c13.8,0,25.4,4.2,34.7,12.6
		c9.3,8.4,13.9,19,13.9,31.8c0,12.8-4.6,23.5-13.8,32c-9.2,8.5-20.8,12.7-34.8,12.7c-14,0-25.6-4.3-34.7-13
		C3423.5,701,3419,690.4,3419,678z M3425.5,1091.7V780.4h82.3v311.3H3425.5z"/>
	<path class="st0" d="M3574.2,938c0-50.9,15-91.2,45-120.7c30-29.5,70.7-44.3,122-44.3c49.6,0,88.7,14.5,117.4,43.4
		c28.7,28.9,43.1,67.7,43.1,116.2c0,50.5-14.9,91-44.6,121.3c-29.7,30.3-69.9,45.5-120.7,45.5c-49.8,0-89.2-14.6-118.5-43.7
		C3588.8,1026.6,3574.2,987.4,3574.2,938z M3657.7,936.8c0,65.4,27.1,98,81.4,98c52.3,0,78.5-33.5,78.5-100.4
		c0-64.8-26.3-97.1-78.8-97.1c-25.7,0-45.6,8.8-59.8,26.5C3664.8,881.5,3657.7,905.8,3657.7,936.8z"/>
</g>
<line class="st1" x1="60.3" y1="160.7" x2="60.3" y2="1091.7"/>
<path class="st1" d="M94.7,161.1c648.5-5,639.2,203.4,211.4,636.6"/>
<path class="st2" d="M141.5,205.6H44.7C28.3,205.6,15,192.4,15,176v-30.6c0-16.4,13.3-29.7,29.7-29.7h96.8
	c16.4,0,29.7,13.3,29.7,29.7V176C171.2,192.4,157.9,205.6,141.5,205.6z"/>
<g>
</g>
<g>
</g>
<g>
</g>
<g>
</g>
<g>
</g>
</svg>
